# xmcd
#
# Track frame offsets: 
#        150
#        11373
#        27100
#        43662
#        58639
#        71349
#        86267
#        99593
#        112961
#        122208
#        132147
#        143335
#        158198
#        170718
#        183854
#        197881
#        216587
#
# Disc length: 3071 seconds
#
# Revision: 0
# Processed by: cddbd v1.5.2PL0 Copyright (c) Steve Scherf et al.
# Submitted via: ExactAudioCopy v0.95b4
#
DISCID=e30bfd11
DTITLE=Various Artist - Flabbergasted
DYEAR=2006
DGENRE=Rustic
TTITLE0=Hootin' and howlin'
TTITLE1=On the othr side
TTITLE2=Food pisoning
TTITLE3=On the trail
TTITLE4=Moved away
TTITLE5=Erazerhead baby
TTITLE6=Pig country
TTITLE7=Broken man
TTITLE8=My baby she's as fat as me
TTITLE9=Make the world go away
TTITLE10=prehistoric plateau
TTITLE11=Drink up thee cider
TTITLE12=I don't wanna get thin
TTITLE13=Perfect woman
TTITLE14=Walk tall
TTITLE15=Green Green Grass of Home
TTITLE16=Please Release Me
EXTD=
EXTT0=
EXTT1=
EXTT2=
EXTT3=
EXTT4=
EXTT5=
EXTT6=
EXTT7=
EXTT8=
EXTT9=
EXTT10=
EXTT11=
EXTT12=
EXTT13=
EXTT14=
EXTT15=
EXTT16=
PLAYORDER=
